<svg width="36" height="37" viewBox="0 0 36 37" fill="none" xmlns="http://www.w3.org/2000/svg">
<path d="M31.2812 10.7119C30.4823 11.5109 29.8442 11.7744 28.625 11.7744C26.1866 11.7744 24.375 9.96285 24.375 7.52441C24.375 6.3052 24.6385 5.66716 25.4375 4.86816L22.25 1.68066L1.53125 22.3994L4.71875 25.5869C5.51775 24.7879 6.15578 24.5244 7.375 24.5244C9.81344 24.5244 11.625 26.336 11.625 28.7744C11.625 29.9936 11.3615 30.6317 10.5625 31.4307L13.75 34.6182L34.4688 13.8994L31.2812 10.7119Z" stroke="#FBB667" stroke-width="2" stroke-miterlimit="10"/>
<path d="M14.8125 9.11816L16.9375 11.2432" stroke="#FBB667" stroke-width="2" stroke-miterlimit="10"/>
<path d="M24.9062 19.2119L27.0312 21.3369" stroke="#FBB667" stroke-width="2" stroke-miterlimit="10"/>
</svg>
