<svg width="37" height="40" viewBox="0 0 37 40" fill="none" xmlns="http://www.w3.org/2000/svg">
<path d="M36.0025 25.769L27.5701 12.4072L31.1304 6.84561C31.9215 5.61165 32.2364 4.16179 31.9743 2.96633C31.7927 2.1417 31.3605 1.49079 30.7229 1.08329L30.5258 0.955863C28.8962 -0.0842054 26.5241 0.813306 25.1219 3.00025L21.7757 8.23038L3.16403 6.49266C2.90688 6.46928 2.65935 6.58984 2.52092 6.80711L1.14211 8.96334C1.02843 9.14073 1.00276 9.3603 1.07152 9.55877C1.14028 9.75725 1.29659 9.91402 1.49552 9.98324L17.1667 15.432L11.2522 24.6744L2.01166 25.5723C1.77055 25.5962 1.5597 25.7442 1.45656 25.9638L0.7259 27.5122C0.634223 27.7066 0.638807 27.933 0.737818 28.1232C0.837287 28.3139 1.02018 28.4473 1.23241 28.4831L11.8898 30.2946L17.9986 39.2129C18.1201 39.3903 18.3172 39.5007 18.5322 39.5108C18.5437 39.5113 18.5547 39.5117 18.5661 39.5117C18.7687 39.5117 18.9617 39.4224 19.0923 39.2665L20.1943 37.9551C20.3501 37.7694 20.3969 37.5155 20.3171 37.2863L17.2607 28.5188L23.0193 19.519L33.5845 28.8076C33.7349 28.9396 33.9348 29.0006 34.1341 28.9717C34.3326 28.9437 34.5086 28.8305 34.6173 28.6623L36.0002 26.5074C36.1437 26.2828 36.1446 25.995 36.0025 25.769ZM33.8912 27.2468L23.3255 17.9577C23.1752 17.8252 22.9767 17.7661 22.7754 17.7931C22.577 17.8211 22.4009 17.9348 22.2923 18.1035L15.9217 28.0591C15.808 28.2369 15.7824 28.4569 15.8516 28.6563L18.8897 37.3702L18.6216 37.6892L12.8959 29.3302C12.8446 29.2554 12.7791 29.1913 12.703 29.1418L12.6049 29.0781C12.5265 29.0272 12.4385 28.9928 12.3463 28.9772L2.35636 27.2794L2.53376 26.903L11.7184 26.011C11.9283 25.9904 12.1176 25.8749 12.2313 25.697L18.7949 15.4394C18.9081 15.262 18.9342 15.0424 18.8654 14.8435C18.7967 14.6445 18.6404 14.4882 18.4414 14.419L2.76937 8.97021L3.45327 7.90081L22.065 9.63853C22.3244 9.66329 22.5701 9.5409 22.7081 9.32454L26.2798 3.74191C27.2327 2.25492 28.8375 1.50821 29.7777 2.10961L29.983 2.24254C30.391 2.5029 30.5606 2.9402 30.6307 3.26107C30.8168 4.1077 30.5707 5.17023 29.972 6.10395L26.1762 12.034C26.0327 12.2586 26.0318 12.5461 26.1739 12.7716L34.6058 26.1334L33.8912 27.2468Z" fill="#FBB667"/>
</svg>
